<?xml version="1.0" standalone="no"?>
<!DOCTYPE svg PUBLIC "-//W3C//DTD SVG 20010904//EN"
 "http://www.w3.org/TR/2001/REC-SVG-20010904/DTD/svg10.dtd">
<svg version="1.0" xmlns="http://www.w3.org/2000/svg"
 width="622.000000pt" height="401.000000pt" viewBox="0 0 622.000000 401.000000"
 preserveAspectRatio="xMidYMid meet">

<g transform="translate(0.000000,401.000000) scale(0.100000,-0.100000)"
fill="#000000" stroke="none">
<path d="M2724 3485 c3 -10 -1 -15 -13 -15 -10 0 -21 -3 -24 -7 -11 -10 13
-32 29 -26 8 3 14 0 14 -7 0 -9 14 -11 50 -8 28 3 50 2 50 -2 0 -4 16 -11 35
-14 37 -7 50 -19 40 -36 -5 -8 -11 -8 -19 -1 -9 7 -19 6 -34 -5 -12 -8 -27
-12 -34 -8 -6 4 -8 3 -4 -4 3 -6 2 -13 -2 -16 -5 -3 -8 -15 -7 -28 1 -13 -7
-34 -19 -47 l-21 -25 28 17 c15 10 27 13 27 7 0 -6 5 -8 11 -4 8 5 8 1 0 -13
-7 -15 -7 -23 2 -32 9 -10 5 -18 -18 -37 -16 -13 -37 -30 -45 -37 -8 -6 -18
-11 -22 -10 -4 2 -4 -5 -1 -14 6 -14 0 -15 -42 -10 -26 4 -53 11 -60 17 -14
12 -25 3 -25 -22 0 -29 -14 -21 -34 22 -18 38 -36 52 -36 29 0 -5 -4 -7 -10
-4 -6 3 -7 -1 -4 -10 11 -27 127 -134 138 -127 6 4 36 8 66 9 79 3 100 6 100
14 0 4 -12 10 -27 12 -20 3 -16 4 14 6 47 1 103 40 103 72 0 23 -2 23 -48 0
-20 -10 -48 -22 -62 -26 l-25 -7 24 26 c24 25 49 36 36 16 -3 -5 -2 -10 3 -10
15 0 62 67 62 88 0 11 7 25 15 32 8 7 15 18 15 24 0 6 8 18 19 25 17 13 17 15
2 31 -44 49 -61 73 -61 91 0 11 -11 24 -25 31 -14 6 -25 15 -25 19 0 5 -9 13
-21 20 -19 10 -20 9 -15 -13 7 -22 6 -22 -8 2 -9 14 -15 19 -16 12 0 -10 -7
-9 -30 3 -37 19 -54 19 -46 0z"/>
<path d="M2630 3480 c-11 -7 -6 -10 22 -10 20 0 40 5 43 10 8 13 -45 13 -65 0z"/>
<path d="M2905 3452 c6 -4 12 -16 13 -27 5 -26 2 -25 42 -15 31 7 32 8 8 9
-28 1 -45 16 -29 25 5 4 11 1 13 -6 3 -7 14 -9 32 -4 39 10 26 18 -36 22 -29
2 -48 0 -43 -4z"/>
<path d="M3000 3426 c0 -2 8 -10 18 -17 15 -13 16 -12 3 4 -13 16 -21 21 -21
13z"/>
<path d="M2730 3340 c-11 -8 -7 -9 15 -4 37 8 45 14 19 14 -10 0 -26 -5 -34
-10z"/>
<path d="M2755 3320 c-16 -7 -17 -9 -3 -9 9 -1 20 4 23 9 7 11 7 11 -20 0z"/>
<path d="M3162 3312 c-9 -7 -8 -13 7 -26 11 -10 20 -30 20 -45 -1 -32 10 -121
16 -138 2 -7 0 -13 -6 -13 -6 0 -8 -4 -4 -9 3 -5 1 -12 -5 -16 -11 -7 -10 -55
2 -55 4 0 8 -4 8 -10 0 -5 -9 -10 -21 -10 -16 0 -20 -4 -15 -17 4 -13 1 -12
-13 5 -18 21 -48 32 -36 13 7 -12 -16 -62 -26 -56 -4 3 -5 -3 -3 -12 4 -14 -2
-18 -28 -20 -38 -3 -48 10 -42 52 l4 30 -14 -30 c-12 -25 -16 -27 -21 -13 -4
10 -13 14 -22 11 -12 -5 -14 -1 -8 17 7 23 7 23 -26 -4 -19 -16 -34 -32 -34
-35 0 -3 -15 -21 -35 -40 l-34 -34 34 7 c28 5 31 4 13 -4 -13 -5 -23 -17 -23
-26 0 -10 -6 -25 -14 -33 -8 -9 -17 -27 -20 -41 -2 -14 -10 -40 -16 -58 -7
-18 -9 -43 -6 -56 4 -16 1 -26 -10 -30 -22 -8 -10 -22 26 -30 19 -3 34 -14 40
-28 5 -15 9 -17 9 -7 1 11 12 16 36 17 19 1 35 -3 35 -8 0 -6 14 -10 30 -10
17 0 30 -5 30 -11 0 -6 -7 -8 -16 -5 -13 5 -15 2 -11 -14 3 -13 0 -20 -10 -20
-8 0 -11 -5 -7 -12 4 -7 3 -8 -5 -4 -15 10 -61 -20 -61 -38 0 -8 -14 -18 -32
-21 -18 -4 -48 -16 -68 -26 -43 -22 -60 -25 -83 -14 -11 5 -24 2 -35 -8 -43
-37 -224 0 -191 39 9 11 7 14 -12 15 -23 1 -23 1 3 9 40 12 71 37 75 60 1 11
-2 20 -8 20 -5 0 -7 5 -3 12 5 8 -2 9 -24 5 -17 -4 -34 -2 -37 3 -3 6 -17 10
-30 10 -14 0 -34 12 -48 30 -14 17 -32 30 -40 30 -8 0 -21 7 -28 17 -13 15
-11 16 22 9 42 -8 72 1 65 19 -4 12 22 27 54 29 10 1 16 14 18 41 2 22 8 45
13 50 7 7 8 3 3 -10 -5 -15 2 -11 26 12 18 18 30 39 27 47 -3 8 1 13 10 12 18
-1 29 44 13 54 -16 10 -24 70 -10 70 6 0 9 -4 6 -9 -3 -5 1 -11 9 -14 22 -9 3
34 -25 52 -22 15 -22 15 -17 -24 6 -49 11 -67 20 -81 5 -9 -4 -9 -34 -3 -22 5
-44 7 -49 4 -5 -3 -20 9 -34 27 -14 18 -26 27 -26 21 0 -7 -10 -12 -22 -10
-15 1 -23 -4 -26 -16 -3 -15 1 -18 15 -13 25 8 68 -16 67 -37 -1 -9 -2 -24 -3
-32 -1 -16 -31 -20 -46 -6 -6 5 -21 12 -35 16 -24 8 -24 7 5 -17 17 -14 37
-28 45 -31 8 -3 10 -6 3 -6 -20 -2 -107 39 -133 62 -14 13 -19 15 -11 5 7 -10
10 -18 7 -18 -4 0 7 -13 24 -30 27 -27 29 -30 10 -30 -11 0 -20 5 -20 10 0 6
-5 10 -12 10 -6 0 -28 17 -48 38 -42 43 -71 56 -46 20 29 -41 17 -40 -31 1
-38 32 -50 38 -61 28 -11 -9 -17 -8 -26 4 -14 19 -96 51 -96 37 0 -6 -7 -8
-15 -5 -11 5 -12 1 -5 -16 17 -44 23 -62 25 -80 1 -11 7 -22 13 -26 10 -6 40
-93 57 -165 3 -16 18 -43 32 -60 14 -16 36 -55 49 -86 58 -132 97 -195 190
-299 33 -36 46 -63 63 -124 12 -43 30 -96 41 -117 27 -52 25 -70 -7 -104 -37
-38 -209 -138 -423 -247 -96 -48 -202 -109 -235 -134 -33 -25 -63 -45 -68 -45
-4 0 -16 -19 -26 -42 -25 -58 -37 -387 -16 -428 9 -18 14 -76 16 -183 2 -140
1 -158 -16 -177 -18 -19 -18 -21 0 -54 18 -32 18 -36 2 -60 -11 -17 -21 -63
-27 -129 -6 -57 -19 -152 -30 -212 -11 -60 -20 -112 -20 -117 0 -4 367 -8 815
-8 759 0 815 1 815 17 0 15 2 14 15 -3 15 -19 15 -19 30 0 15 20 15 20 15 0 0
-16 2 -17 10 -4 9 13 11 13 21 0 9 -13 10 -13 6 2 -4 10 1 18 14 21 11 3 18
13 18 24 -1 16 -2 16 -6 1 -2 -10 -9 -18 -14 -18 -12 0 -12 27 1 35 6 3 10 15
10 26 0 22 10 24 30 6 12 -10 12 -9 0 6 -7 10 -19 16 -26 13 -7 -3 -15 3 -17
12 -4 16 -5 15 -6 0 -1 -20 -16 -24 -27 -7 -3 6 0 16 7 21 11 8 10 9 -3 4 -12
-4 -18 0 -18 11 0 14 -2 14 -15 -3 -8 -10 -15 -27 -15 -36 0 -10 -4 -18 -10
-18 -5 0 -10 3 -10 8 0 10 49 89 50 78 0 -5 7 -3 15 4 13 10 15 9 16 -11 1
-17 3 -19 6 -6 2 9 9 17 15 17 6 0 8 -9 5 -20 -3 -11 -1 -18 4 -14 5 3 9 13 9
23 0 10 6 24 14 30 12 10 15 8 18 -11 4 -33 33 -30 31 4 -1 20 2 25 13 21 8
-3 14 1 15 8 1 8 4 3 8 -11 8 -31 36 -34 35 -4 0 24 27 27 34 4 3 -8 0 -10 -8
-5 -8 5 -11 4 -6 -3 3 -6 1 -14 -5 -17 -5 -4 -8 -13 -5 -21 9 -23 -15 -27 -30
-5 -22 31 -29 27 -49 -26 -21 -57 -32 -73 -48 -69 -7 1 -9 1 -4 -1 4 -3 4 -9
1 -15 -3 -5 3 -4 15 4 12 7 21 16 21 21 0 4 8 7 18 5 11 -2 18 4 20 19 2 12
10 27 18 33 11 10 14 8 15 -11 l0 -24 10 25 c7 16 12 21 17 13 6 -9 13 -5 26
12 10 14 24 25 29 25 7 0 7 -4 -1 -12 -7 -7 -12 -20 -12 -29 0 -22 -26 -45
-32 -27 -3 9 -6 9 -12 0 -4 -7 -2 -12 4 -12 6 0 8 -6 4 -13 -4 -6 5 -1 19 12
32 29 41 25 24 -9 -7 -14 -21 -25 -32 -25 -12 0 -21 -8 -23 -20 -6 -30 -21
-44 -40 -38 -14 4 -15 3 -2 -6 10 -7 19 -6 31 5 21 19 30 18 22 -3 -5 -15 -3
-15 9 1 15 19 15 19 26 0 10 -17 11 -17 12 -1 0 22 17 22 23 0 4 -17 5 -17 6
0 1 10 -9 21 -24 27 -29 11 -31 22 -10 40 13 10 15 9 16 -11 1 -17 3 -19 6 -6
5 18 15 22 26 10 4 -3 2 -12 -4 -20 -8 -8 -8 -13 -1 -13 6 0 13 6 15 13 3 6 6
0 6 -15 1 -14 -4 -28 -10 -30 -6 -2 16 -4 50 -3 33 0 61 2 61 4 0 2 -21 68
-46 145 -25 78 -47 146 -48 151 -2 6 9 24 23 42 14 18 36 46 49 63 13 16 27
30 32 30 5 0 18 -24 29 -52 27 -72 79 -195 127 -300 l39 -87 738 -1 c615 0
737 2 737 14 0 7 -14 40 -31 72 -110 210 -103 188 -109 322 -4 102 -8 125 -22
133 -34 19 -47 40 -53 87 -13 109 -26 155 -49 182 -13 16 -34 62 -46 102 -12
40 -33 94 -46 120 -14 28 -24 65 -24 91 0 24 -4 47 -10 53 -5 5 -14 37 -19 69
-8 60 -62 221 -107 324 -13 29 -24 70 -24 90 0 20 -11 56 -25 81 -13 25 -46
85 -72 133 -26 49 -63 105 -83 126 -35 38 -36 38 -160 55 -72 9 -195 16 -290
16 -91 0 -194 5 -230 10 -36 5 -126 12 -200 16 -134 6 -136 7 -214 48 -120 63
-142 87 -158 173 -14 71 -14 73 9 95 24 25 70 130 54 125 -15 -4 -12 16 6 50
15 29 16 39 4 90 -25 112 -25 109 -10 96 17 -17 29 -16 29 1 0 25 -52 78 -97
97 -24 10 -43 23 -43 30 0 6 -16 47 -35 90 -20 46 -35 96 -35 118 0 40 -35
131 -50 131 -4 0 -7 11 -6 24 2 14 -5 28 -17 35 -11 7 -16 8 -13 2 4 -7 1 -8
-8 -5 -9 3 -13 10 -10 15 6 11 3 11 -14 1z m-1125 -449 c-6 -5 -67 30 -67 39
0 4 16 -2 35 -14 20 -11 34 -22 32 -25z m68 -21 c-3 -3 -11 0 -18 7 -9 10 -8
11 6 5 10 -3 15 -9 12 -12z m20 -40 c-7 -8 -35 7 -35 18 0 6 7 6 20 -2 10 -7
17 -14 15 -16z m405 8 c0 -5 -5 -10 -11 -10 -5 0 -7 5 -4 10 3 6 8 10 11 10 2
0 4 -4 4 -10z m-210 -60 c0 -5 -7 -7 -15 -4 -8 4 -15 8 -15 10 0 2 7 4 15 4 8
0 15 -4 15 -10z m85 -60 c-3 -5 -14 -10 -23 -9 -14 0 -13 2 3 9 27 11 27 11
20 0z m1049 -73 c-3 -12 -13 -30 -21 -39 -8 -9 -12 -25 -9 -36 4 -10 -1 -34
-9 -53 l-16 -34 4 31 c2 20 -1 30 -7 28 -10 -4 -12 22 -8 79 1 10 13 22 27 27
14 5 25 14 25 20 0 6 5 8 10 5 6 -4 8 -16 4 -28z m-94 -45 c0 -7 -4 -10 -10
-7 -5 3 -10 16 -10 28 0 18 2 19 10 7 5 -8 10 -21 10 -28z m-895 -232 c-3 -5
-13 -10 -21 -10 -8 0 -14 5 -14 10 0 6 9 10 21 10 11 0 17 -4 14 -10z m625
-30 c0 -5 -9 -10 -21 -10 -11 0 -17 5 -14 10 3 6 13 10 21 10 8 0 14 -4 14
-10z m26 -35 c18 -14 18 -16 1 -26 -9 -5 -15 -14 -13 -18 8 -13 -84 -58 -131
-65 -35 -5 -41 -4 -37 9 5 11 -3 17 -26 21 -21 5 -35 15 -42 33 l-11 26 -6
-24 c-9 -34 -27 -37 -35 -6 -8 33 12 55 39 44 31 -12 96 -9 135 6 47 18 102
18 126 0z m-372 -19 c15 -13 26 -31 26 -40 0 -9 7 -28 16 -41 9 -14 13 -33 9
-44 -3 -11 0 -29 7 -40 11 -19 14 -19 30 -4 17 15 18 14 18 -11 0 -27 -39 -76
-60 -76 -12 0 -62 106 -80 170 -6 25 -16 50 -22 57 -6 8 -3 15 9 22 10 6 14
11 10 11 -8 0 0 20 8 20 2 0 15 -11 29 -24z m-74 -92 c0 -8 -4 -12 -10 -9 -5
3 -10 13 -10 21 0 8 5 12 10 9 6 -3 10 -13 10 -21z m-35 -16 c-4 -13 -9 -34
-12 -48 -7 -34 -75 -67 -108 -52 -15 7 -22 19 -22 36 0 20 6 26 31 32 17 4 46
17 66 30 45 29 54 29 45 2z m275 -74 c0 -8 -4 -12 -10 -9 -5 3 -10 10 -10 16
0 5 5 9 10 9 6 0 10 -7 10 -16z m325 -277 c3 -73 -26 -153 -59 -163 -11 -4
-26 -14 -33 -23 -11 -14 -14 -14 -23 -1 -5 8 -10 10 -10 4 0 -6 -15 -14 -32
-17 -18 -4 -43 -9 -56 -13 -19 -5 -22 -3 -20 17 3 21 -1 24 -26 22 -28 -2 -28
-1 -10 11 10 7 38 21 62 31 23 11 42 22 42 27 0 4 6 5 14 2 8 -3 24 0 35 6 17
9 22 8 28 -6 4 -10 0 -22 -10 -29 -21 -15 -22 -25 -3 -25 15 0 31 43 27 73 -1
10 4 28 12 40 19 30 27 77 13 77 -6 0 -4 5 4 10 8 5 11 10 7 10 -4 0 -3 10 4
22 11 20 12 20 21 3 6 -9 11 -45 13 -78z m-195 25 c0 -5 -12 -14 -27 -21 -28
-13 -28 -13 -9 8 20 22 36 27 36 13z m442 -204 c-6 -6 -35 -13 -64 -16 l-53
-4 43 44 c23 24 42 48 42 54 0 5 6 16 13 23 10 10 14 2 20 -40 6 -33 5 -55 -1
-61z m-655 26 c44 -30 66 -52 76 -77 6 -15 4 -16 -16 -6 -26 13 -107 90 -107
101 0 12 6 10 47 -18z m663 -55 c0 -8 4 -8 13 -1 7 6 22 9 32 7 11 -2 23 -4
26 -4 4 -1 9 -9 12 -20 7 -29 -49 -73 -141 -111 -49 -20 -79 -37 -73 -43 5 -5
17 -4 29 2 25 13 35 14 28 2 -3 -5 1 -11 9 -15 8 -3 16 -1 16 4 1 6 2 14 3 19
0 5 5 13 10 18 5 5 6 3 2 -4 -4 -7 -2 -13 4 -13 6 0 16 -11 22 -25 10 -21 8
-27 -8 -39 -10 -8 -22 -12 -26 -10 -4 2 -14 -6 -23 -18 -15 -22 -17 -22 -29
-5 -7 9 -18 17 -25 17 -6 0 -11 6 -11 14 0 25 -23 36 -44 21 -25 -18 -14 -49
14 -40 11 4 20 2 20 -4 0 -6 7 -11 15 -11 12 0 11 -7 -7 -35 -29 -44 -49 -46
-46 -3 1 18 -3 33 -10 36 -6 2 -12 10 -12 18 0 12 -4 12 -25 -2 -35 -23 -54
-5 -53 49 0 57 10 71 58 87 22 7 44 19 48 26 4 6 22 15 40 19 28 6 32 4 32
-14 0 -17 4 -19 23 -12 15 6 21 16 19 31 -1 13 5 34 13 47 16 24 45 32 45 12z
m138 -85 c18 -8 32 -21 32 -29 0 -15 -27 -28 -42 -19 -6 4 -14 0 -19 -7 -7
-11 -9 -11 -9 -1 0 7 -5 10 -10 7 -6 -4 -8 -11 -5 -16 4 -5 -3 -9 -14 -9 -20
0 -26 11 -21 35 1 6 3 16 4 24 2 12 26 28 47 30 3 1 20 -6 37 -15z m-115 -51
c-7 -2 -13 -11 -13 -19 0 -8 -4 -14 -10 -14 -5 0 -10 9 -10 20 0 14 6 20 23
19 12 0 16 -3 10 -6z m-650 -37 c19 -13 44 -33 55 -44 11 -11 43 -27 72 -37
28 -9 54 -24 57 -33 10 -25 -35 -180 -62 -216 -14 -18 -25 -39 -25 -47 0 -8
-9 -25 -20 -39 -21 -28 -22 -26 -38 50 -6 25 -22 96 -36 159 -30 130 -31 145
-13 136 6 -4 5 0 -4 7 -18 15 -42 88 -30 88 5 0 24 -11 44 -24z m248 -39 c-6
-8 -10 -16 -8 -18 1 -2 0 -3 -2 -1 -12 7 -7 32 6 32 12 0 13 -3 4 -13z m556
-59 c-9 -5 -22 -15 -30 -23 -8 -8 -17 -12 -20 -8 -3 3 -18 -4 -34 -14 -15 -11
-33 -18 -39 -16 -6 2 -16 -8 -22 -22 -6 -14 -20 -25 -30 -25 -11 0 -27 -14
-38 -35 -11 -20 -24 -33 -31 -30 -7 3 -19 7 -25 10 -7 2 -26 -13 -42 -35 -22
-29 -35 -39 -48 -34 -15 4 -18 0 -18 -25 0 -24 -4 -31 -20 -31 -27 0 -27 36 0
50 15 8 19 17 15 31 -7 22 15 49 40 49 10 0 15 6 13 18 -4 18 1 25 46 74 24
27 36 31 85 34 40 2 77 13 131 38 65 31 75 34 79 20 1 -10 -4 -21 -12 -26z
m-454 -15 c-7 -3 -13 -13 -13 -24 0 -10 -5 -19 -11 -19 -7 0 -9 9 -5 23 3 12
6 31 6 42 0 19 1 19 18 1 12 -13 14 -20 5 -23z m1060 -99 c3 -3 -5 -23 -18
-43 -18 -29 -22 -47 -20 -91 4 -87 4 -87 20 -60 12 21 14 22 15 6 0 -20 -34
-55 -106 -106 -37 -26 -43 -28 -55 -14 -10 13 -5 22 31 59 50 51 50 65 -1 31
-18 -13 -46 -30 -61 -39 -14 -9 -29 -27 -31 -39 -3 -15 -5 -10 -6 14 0 20 3
39 8 42 5 3 12 26 15 51 5 30 14 49 27 55 11 6 30 28 43 48 37 58 76 92 106
92 15 0 29 -3 33 -6z m-533 -29 c0 -21 -72 -55 -115 -55 -51 0 -40 18 24 41
30 10 56 21 59 24 11 11 32 4 32 -10z m-497 -9 c4 -9 -2 -17 -14 -21 -21 -7
-26 -35 -6 -35 14 0 21 -45 10 -63 -14 -23 -12 -62 4 -74 21 -16 9 -17 -16 -1
-15 9 -22 8 -35 -5 -19 -18 -5 -32 22 -22 15 5 14 4 -2 -12 -13 -13 -20 -15
-23 -5 -8 21 -20 13 -20 -13 0 -29 5 -30 32 -12 30 21 57 29 49 15 -5 -8 -2
-9 9 -5 10 4 24 10 32 13 12 5 13 2 6 -17 -5 -14 -17 -24 -29 -25 -11 -1 -34
-11 -52 -24 -24 -17 -30 -28 -26 -45 5 -19 -1 -27 -33 -43 -30 -16 -41 -18
-51 -9 -10 9 -11 9 -6 -1 10 -17 -18 -42 -48 -42 -16 0 -26 -6 -26 -15 0 -8
-6 -15 -14 -15 -8 0 -25 -13 -39 -29 -14 -17 -28 -27 -32 -23 -4 4 13 -24 39
-63 25 -38 46 -75 46 -82 0 -17 72 -17 88 -1 8 8 12 9 12 1 0 -6 -20 -19 -44
-28 -43 -16 -44 -18 -48 -68 -5 -56 -25 -106 -61 -150 l-22 -27 -40 37 c-56
54 -169 181 -198 223 -13 19 -40 59 -61 88 -33 46 -36 55 -25 70 8 9 45 54 83
100 l69 83 26 -24 c21 -20 30 -23 47 -15 12 6 27 21 33 34 6 14 18 27 26 30 8
4 15 13 15 21 0 32 79 62 80 31 1 -7 9 -2 20 11 11 12 17 27 14 32 -3 5 3 12
13 16 10 4 35 23 55 44 20 21 39 35 42 32 2 -3 19 1 35 8 23 10 31 20 30 39 0
15 -3 19 -6 10 -8 -20 -24 -30 -48 -29 -11 0 -14 3 -7 6 6 2 12 13 12 23 0 30
24 77 38 73 6 -3 12 0 12 6 0 16 27 13 33 -3z m243 -45 c-3 -5 0 -9 7 -8 41 1
48 -3 45 -29 -4 -37 -35 -55 -52 -31 -7 9 -21 17 -30 17 -22 0 -21 36 2 49 21
13 35 14 28 2z m-83 -87 c25 -9 17 -37 -13 -44 -15 -4 -26 -15 -30 -30 -6 -25
-50 -43 -50 -21 0 6 -6 11 -13 11 -21 0 -15 42 10 66 23 23 51 34 68 28 6 -2
18 -7 28 -10z m-313 2 c0 -3 -4 -8 -10 -11 -5 -3 -10 -1 -10 4 0 6 5 11 10 11
6 0 10 -2 10 -4z m450 -680 c0 -2 -7 -7 -16 -10 -8 -3 -12 -2 -9 4 6 10 25 14
25 6z m-86 -18 c-3 -4 2 -8 10 -8 9 0 16 5 16 11 0 6 7 3 16 -6 9 -9 13 -19
10 -23 -4 -3 -11 0 -17 8 -7 11 -8 7 -5 -15 2 -16 5 -34 5 -38 1 -5 6 -5 11
-2 6 4 8 11 5 16 -4 5 -1 9 4 9 15 0 14 -30 -1 -31 -17 -2 -42 2 -47 7 -2 2 2
11 10 21 12 15 12 16 -3 10 -13 -5 -18 -1 -18 13 0 10 -5 22 -10 25 -15 9 -40
-13 -34 -29 3 -7 -2 -19 -11 -26 -24 -20 -20 21 5 48 18 19 65 28 54 10z m96
-19 c0 -5 -7 -9 -15 -9 -15 0 -20 12 -9 23 8 8 24 -1 24 -14z m-177 -19 c-6
-22 -23 -38 -23 -21 0 17 12 41 20 41 5 0 6 -9 3 -20z m67 12 c0 -5 -7 -23
-16 -41 -12 -23 -19 -30 -27 -22 -7 7 -6 16 6 29 9 10 17 24 17 30 0 7 5 12
10 12 6 0 10 -4 10 -8z m-114 -50 c-15 -15 -16 -15 -16 2 0 16 -3 14 -21 -8
-11 -14 -17 -30 -14 -36 3 -5 -1 -10 -9 -10 -25 0 -19 13 26 61 35 37 42 41
46 25 2 -10 -3 -26 -12 -34z m228 23 c3 -8 1 -15 -4 -15 -6 0 -10 7 -10 15 0
8 2 15 4 15 2 0 6 -7 10 -15z m-107 -20 c0 -8 -4 -15 -9 -15 -4 0 -8 7 -8 15
0 8 4 15 8 15 5 0 9 -7 9 -15z m-63 -10 c6 -16 -9 -29 -23 -21 -5 3 -14 -1
-21 -9 -7 -8 -20 -15 -30 -15 -18 0 -34 23 -23 34 12 11 23 6 24 -11 0 -14 2
-15 6 -3 14 37 56 52 67 25z m177 -14 c0 11 2 11 6 0 5 -11 7 -11 15 0 8 12 9
12 6 0 -6 -22 -48 -25 -49 -3 -1 16 -2 16 -6 0 -2 -10 -10 -18 -16 -19 -7 0
-5 -3 4 -7 13 -6 12 -10 -11 -29 -25 -21 -26 -21 -27 -1 -1 12 3 18 10 15 7
-3 13 6 14 21 2 33 24 47 41 25 9 -13 12 -14 13 -2z m-101 -16 c0 -8 -4 -15
-10 -15 -5 0 -10 7 -10 15 0 8 5 15 10 15 6 0 10 -7 10 -15z m-70 -20 c0 -8
-4 -15 -10 -15 -5 0 -10 7 -10 15 0 8 5 15 10 15 6 0 10 -7 10 -15z m183 -2
c4 -3 1 -13 -6 -21 -10 -13 -9 -15 6 -9 12 5 17 1 17 -12 0 -21 23 -44 33 -34
4 3 7 1 7 -5 0 -6 -4 -14 -10 -17 -5 -3 -10 -1 -10 6 0 8 -4 8 -15 -1 -8 -7
-15 -17 -15 -22 0 -6 7 -5 15 2 13 10 15 9 15 -9 0 -24 -12 -27 -28 -8 -12 14
-11 35 2 56 7 11 5 13 -7 8 -12 -4 -17 -1 -18 11 0 9 -2 27 -5 40 -4 21 6 29
19 15z m-147 -48 c-9 -9 -16 -23 -16 -31 0 -8 -4 -14 -10 -14 -12 0 -13 5 -1
28 5 9 12 26 16 36 4 14 9 16 17 8 8 -8 6 -15 -6 -27z m194 5 c0 -5 -4 -10
-10 -10 -5 0 -10 5 -10 10 0 6 5 10 10 10 6 0 10 -4 10 -10z m-70 -10 c0 -5
-4 -10 -10 -10 -5 0 -10 5 -10 10 0 6 5 10 10 10 6 0 10 -4 10 -10z m-300 -45
c-7 -8 -10 -21 -7 -28 3 -8 -1 -14 -8 -14 -15 0 -13 17 6 62 10 24 13 26 16
12 3 -10 -1 -24 -7 -32z m306 -12 c-11 -11 -19 6 -11 24 8 17 8 17 12 0 3 -10
2 -21 -1 -24z m-246 6 c0 -23 -30 -34 -31 -11 -1 16 -2 16 -6 0 -5 -21 -23
-24 -23 -5 0 19 17 33 40 33 12 0 20 -7 20 -17z m325 -26 c-4 -10 -10 -26 -12
-35 -3 -10 -9 -18 -14 -18 -12 0 -11 11 4 43 13 29 34 38 22 10z m-345 -35 c0
-5 -7 -8 -15 -8 -8 0 -15 5 -15 12 0 6 -7 3 -15 -8 -12 -16 -14 -16 -15 -3 0
21 42 41 52 25 4 -6 8 -14 8 -18z m210 10 c0 -16 -3 -19 -11 -11 -6 6 -8 16
-5 22 11 17 16 13 16 -11z m160 -13 c8 -11 10 -17 6 -13 -5 4 -15 3 -23 -3
-10 -9 -13 -7 -13 8 0 16 11 39 14 31 1 -2 8 -12 16 -23z"/>
<path d="M4195 1120 c3 -5 8 -10 11 -10 2 0 4 5 4 10 0 6 -5 10 -11 10 -5 0
-7 -4 -4 -10z"/>
<path d="M4140 1068 c0 -34 16 -56 30 -42 17 17 8 58 -12 62 -13 3 -18 -3 -18
-20z"/>
<path d="M3190 1019 c0 -5 5 -7 10 -4 6 3 10 8 10 11 0 2 -4 4 -10 4 -5 0 -10
-5 -10 -11z"/>
<path d="M3125 970 c3 -5 11 -10 16 -10 6 0 7 5 4 10 -3 6 -11 10 -16 10 -6 0
-7 -4 -4 -10z"/>
<path d="M2910 801 c0 -6 5 -11 10 -11 6 0 10 -4 10 -10 0 -5 -8 -6 -17 -3
-13 5 -15 2 -9 -12 4 -11 2 -22 -6 -26 -10 -6 -8 -12 7 -23 11 -8 22 -10 23
-5 2 5 14 9 27 9 19 0 22 4 18 21 -5 19 -4 20 17 9 18 -10 21 -9 18 2 -3 7
-18 18 -35 23 -16 6 -37 16 -46 24 -11 9 -17 10 -17 2z"/>
<path d="M3155 800 c-3 -5 -1 -10 4 -10 6 0 11 5 11 10 0 6 -2 10 -4 10 -3 0
-8 -4 -11 -10z"/>
<path d="M2847 739 c7 -7 15 -10 18 -7 3 3 -2 9 -12 12 -14 6 -15 5 -6 -5z"/>
<path d="M2695 3300 c-16 -7 -17 -9 -3 -9 9 -1 20 4 23 9 7 11 7 11 -20 0z"/>
<path d="M2750 3259 c-22 -18 -22 -19 -3 -10 12 6 25 16 28 21 9 15 3 12 -25
-11z"/>
<path d="M3061 3231 c-10 -7 -12 -21 -7 -54 4 -28 3 -48 -4 -52 -5 -3 -10 -22
-10 -42 l0 -36 23 21 c13 12 27 19 30 15 4 -3 7 -2 8 3 5 59 3 82 -9 101 -9
15 -10 22 -1 25 8 3 7 7 -3 15 -8 7 -19 8 -27 4z"/>
<path d="M2681 3209 c-13 -5 -21 -12 -18 -15 9 -9 57 5 57 16 0 12 -7 12 -39
-1z"/>
<path d="M2724 3164 c-18 -14 -18 -15 4 -4 12 6 22 13 22 15 0 8 -5 6 -26 -11z"/>
<path d="M3003 3140 c0 -16 4 -27 8 -24 4 2 9 -1 11 -8 3 -8 7 -6 11 5 3 9 2
17 -4 17 -6 0 -7 5 -4 10 3 6 1 10 -5 10 -6 0 -8 5 -5 10 3 6 2 10 -3 10 -5 0
-9 -13 -9 -30z"/>
<path d="M3160 3100 c0 -5 5 -10 11 -10 5 0 7 5 4 10 -3 6 -8 10 -11 10 -2 0
-4 -4 -4 -10z"/>
<path d="M2890 2990 c-13 -9 -13 -10 0 -10 8 0 22 5 30 10 13 9 13 10 0 10 -8
0 -22 -5 -30 -10z"/>
<path d="M1928 2955 c3 -19 8 -23 15 -16 8 8 7 16 -5 27 -14 14 -15 14 -10
-11z"/>
<path d="M2606 2955 c-9 -23 -8 -25 9 -25 17 0 19 9 6 28 -7 11 -10 10 -15 -3z"/>
<path d="M2470 2919 c0 -5 -6 -7 -12 -3 -10 5 -10 4 -1 -6 6 -7 16 -9 22 -6
14 9 14 26 1 26 -5 0 -10 -5 -10 -11z"/>
<path d="M2900 2540 c-9 -6 -10 -10 -3 -10 6 0 15 5 18 10 8 12 4 12 -15 0z"/>
<path d="M3332 159 c-8 -12 -9 -18 -3 -15 5 4 12 2 16 -4 3 -5 12 -10 18 -10
8 0 7 3 -2 9 -8 5 -11 16 -8 25 9 23 -6 20 -21 -5z"/>
<path d="M3430 100 c0 -5 1 -12 3 -14 1 -2 -6 -13 -17 -24 -10 -12 -16 -27
-13 -34 3 -8 6 -6 6 6 1 12 6 16 15 13 10 -4 13 -1 9 9 -4 10 0 13 13 8 15 -4
16 -4 5 4 -8 6 -11 17 -8 26 4 9 2 16 -3 16 -6 0 -10 -4 -10 -10z"/>
<path d="M3386 65 c-3 -9 -10 -14 -15 -11 -12 8 -44 -30 -38 -46 4 -8 6 -7 6
5 1 20 17 23 24 4 2 -6 2 -2 0 10 -2 16 1 21 11 17 12 -5 32 23 22 33 -2 2 -6
-3 -10 -12z"/>
</g>
</svg>
