# Wavefront OBJ exported by MilkShape 3D

mtllib rus_build_dec_roof_01.mtl

v 57.000000 3.000000 -16.000000
v -57.000000 3.000000 -16.000000
v 57.000000 1.000000 -16.000000
v -57.000000 1.000000 -16.000000
v -57.000000 3.000000 16.000000
v 57.000000 3.000000 16.000000
v -57.000000 1.000000 16.000000
v 57.000000 1.000000 16.000000
v 57.000000 3.000000 -16.000000
v -57.000000 3.000000 -16.000000
v 57.000000 1.000000 -16.000000
v -57.000000 1.000000 -16.000000
v -57.000000 3.000000 16.000000
v 57.000000 3.000000 16.000000
v -57.000000 1.000000 16.000000
v 57.000000 1.000000 16.000000
v -54.000000 10.000000 -11.000000
v -51.000000 10.000000 -14.000000
v -54.000000 2.000000 -11.000000
v -51.000000 2.000000 -14.000000
v -54.000000 10.000000 -11.000000
v -51.000000 10.000000 -14.000000
v -54.000000 2.000000 -11.000000
v -51.000000 2.000000 -14.000000
v -11.000000 11.000000 -8.000000
v -7.000000 11.000000 -8.000000
v -11.000000 3.000000 -8.000000
v -7.000000 3.000000 -8.000000
v -11.000000 11.000000 -8.000000
v -7.000000 11.000000 -8.000000
v -11.000000 3.000000 -8.000000
v -7.000000 3.000000 -8.000000
v 8.000000 9.000000 -15.000000
v 12.000000 9.000000 -15.000000
v 8.000000 1.000000 -15.000000
v 12.000000 1.000000 -15.000000
v 8.000000 9.000000 -15.000000
v 12.000000 9.000000 -15.000000
v 8.000000 1.000000 -15.000000
v 12.000000 1.000000 -15.000000
v 53.000000 10.000000 -11.000000
v 50.000000 10.000000 -14.000000
v 53.000000 2.000000 -11.000000
v 50.000000 2.000000 -14.000000
v 53.000000 10.000000 -11.000000
v 50.000000 10.000000 -14.000000
v 53.000000 2.000000 -11.000000
v 50.000000 2.000000 -14.000000
v 54.428574 10.000000 10.857143
v 51.428581 10.000000 13.857141
v 54.428574 2.000000 10.857143
v 51.428581 2.000000 13.857141
v 54.428574 10.000000 10.857143
v 51.428581 10.000000 13.857141
v 54.428574 2.000000 10.857143
v 51.428581 2.000000 13.857141
v 12.000000 9.000000 15.000000
v 8.000000 9.000000 15.000000
v 12.000000 1.000000 15.000000
v 8.000000 1.000000 15.000000
v 12.000000 9.000000 15.000000
v 8.000000 9.000000 15.000000
v 12.000000 1.000000 15.000000
v 8.000000 1.000000 15.000000
v -18.000000 11.000000 7.000000
v -22.000000 11.000000 7.000000
v -18.000000 3.000000 7.000000
v -22.000000 3.000000 7.000000
v -18.000000 11.000000 7.000000
v -22.000000 11.000000 7.000000
v -18.000000 3.000000 7.000000
v -22.000000 3.000000 7.000000
v -52.571415 10.000000 10.857143
v -49.571415 10.000000 13.857139
v -52.571415 2.000000 10.857143
v -49.571415 2.000000 13.857139
v -52.571415 10.000000 10.857143
v -49.571415 10.000000 13.857139
v -52.571415 2.000000 10.857143
v -49.571415 2.000000 13.857139
v -57.000000 3.000000 -16.000000
v -57.000000 3.000000 16.000000
v -57.000000 1.000000 -16.000000
v -57.000000 1.000000 16.000000
v -57.000000 3.000000 -16.000000
v -57.000000 3.000000 16.000000
v -57.000000 1.000000 -16.000000
v -57.000000 1.000000 16.000000
v 57.000000 3.000000 -16.000000
v 57.000000 3.000000 16.000000
v 57.000000 1.000000 -16.000000
v 57.000000 1.000000 16.000000
v 57.000000 3.000000 -16.000000
v 57.000000 3.000000 16.000000
v 57.000000 1.000000 -16.000000
v 57.000000 1.000000 16.000000
# 96 vertices

vt 0.000000 0.500000
vt 14.500000 0.500000
vt 14.500000 0.750000
vt 0.000000 0.750000
vt 0.000000 0.000000
vt 0.250000 0.000000
vt 0.250000 0.500000
vt 0.500000 0.000000
vt 0.500000 0.500000
vt 0.750000 0.000000
vt 0.750000 0.500000
vt 1.000000 0.000000
vt 1.000000 0.500000
vt 4.000000 0.500000
vt 4.000000 0.750000
# 15 texture coordinates

vn 0.000000 0.000000 -1.000000
vn 0.000000 0.000000 1.000000
vn 0.707107 0.000000 0.707107
vn -0.707107 0.000000 -0.707107
vn 0.707107 0.000000 -0.707107
vn -0.707107 0.000000 0.707107
vn -1.000000 0.000000 0.000000
vn 1.000000 0.000000 0.000000
# 8 normals

g rus_build_dec_01
usemtl rus_build_dec_01
s 1
f 3/1/1 4/2/1 2/3/1
f 3/1/1 2/3/1 1/4/1
f 7/1/2 8/2/2 6/3/2
f 7/1/2 6/3/2 5/4/2
f 10/3/2 12/2/2 11/1/2
f 9/4/2 10/3/2 11/1/2
f 14/3/1 16/2/1 15/1/1
f 13/4/1 14/3/1 15/1/1
f 19/5/3 20/6/3 18/7/3
f 19/5/3 18/7/3 17/1/3
f 22/7/4 24/6/4 23/5/4
f 21/1/4 22/7/4 23/5/4
f 27/6/2 28/8/2 26/9/2
f 27/6/2 26/9/2 25/7/2
f 30/9/1 32/8/1 31/6/1
f 29/7/1 30/9/1 31/6/1
f 35/8/2 36/10/2 34/11/2
f 35/8/2 34/11/2 33/9/2
f 38/11/1 40/10/1 39/8/1
f 37/9/1 38/11/1 39/8/1
f 43/10/5 44/12/5 42/13/5
f 43/10/5 42/13/5 41/11/5
f 46/13/6 48/12/6 47/10/6
f 45/11/6 46/13/6 47/10/6
f 51/5/4 52/6/4 50/7/4
f 51/5/4 50/7/4 49/1/4
f 54/7/3 56/6/3 55/5/3
f 53/1/3 54/7/3 55/5/3
f 59/6/1 60/8/1 58/9/1
f 59/6/1 58/9/1 57/7/1
f 62/9/2 64/8/2 63/6/2
f 61/7/2 62/9/2 63/6/2
f 67/8/1 68/10/1 66/11/1
f 67/8/1 66/11/1 65/9/1
f 70/11/2 72/10/2 71/8/2
f 69/9/2 70/11/2 71/8/2
f 75/10/6 76/12/6 74/13/6
f 75/10/6 74/13/6 73/11/6
f 78/13/5 80/12/5 79/10/5
f 77/11/5 78/13/5 79/10/5
f 83/1/7 84/14/7 82/15/7
f 83/1/7 82/15/7 81/4/7
f 86/15/8 88/14/8 87/1/8
f 85/4/8 86/15/8 87/1/8
f 91/1/7 92/14/7 90/15/7
f 91/1/7 90/15/7 89/4/7
f 94/15/8 96/14/8 95/1/8
f 93/4/8 94/15/8 95/1/8
# 48 triangles in group

# 48 triangles total

