# Wavefront OBJ exported by MilkShape 3D

mtllib rus_build_dec_roof_02.mtl

v 11.000000 2.000000 24.000000
v 11.000000 2.000000 16.000000
v 11.000000 0.000000 24.000000
v 11.000000 0.000000 16.000000
v 4.200001 8.000000 13.800000
v 8.200001 8.000000 13.800000
v 4.200001 0.000000 13.800000
v 8.200001 0.000000 13.800000
v -30.000000 2.000000 16.000000
v 11.000000 2.000000 16.000000
v -30.000000 0.000000 16.000000
v 11.000000 0.000000 16.000000
v 11.000000 2.000000 24.000000
v 45.000000 2.000000 24.000000
v 11.000000 0.000000 24.000000
v 45.000000 0.000000 24.000000
v 45.000000 2.000000 -24.000000
v 11.000000 2.000000 -24.000000
v 45.000000 0.000000 -24.000000
v 11.000000 0.000000 -24.000000
v 11.000000 2.000000 -16.000000
v -30.000000 2.000000 -16.000000
v 11.000000 0.000000 -16.000000
v -30.000000 0.000000 -16.000000
v -30.000000 2.000000 -16.000000
v -30.000000 2.000000 16.000000
v -30.000000 0.000000 -16.000000
v -30.000000 0.000000 16.000000
v 45.000000 2.000000 24.000000
v 45.000000 2.000000 -24.000000
v 45.000000 0.000000 24.000000
v 45.000000 0.000000 -24.000000
v -25.734814 8.000000 10.366668
v -22.342619 8.000000 12.486340
v -25.734814 0.000000 10.366668
v -22.342619 0.000000 12.486340
v 15.841494 8.000000 19.368242
v 19.339970 8.000000 21.307482
v 15.841494 0.000000 19.368242
v 19.339970 0.000000 21.307482
v 38.000000 8.000000 21.000002
v 41.999996 8.000000 21.000002
v 38.000000 0.000000 21.000002
v 41.999996 0.000000 21.000002
v 15.002306 8.000000 -20.968571
v 11.002924 8.000000 -20.898766
v 15.002306 0.000000 -20.968571
v 11.002924 0.000000 -20.898766
v 44.992500 8.000000 -18.058218
v 41.563805 8.000000 -20.118351
v 44.992500 0.000000 -18.058218
v 41.563805 0.000000 -20.118351
v -0.534602 8.000000 -12.532811
v -4.066351 8.000000 -14.410694
v -0.534602 0.000000 -12.532811
v -4.066351 0.000000 -14.410694
v -22.718252 8.000000 -13.777578
v -26.717642 8.000000 -13.707766
v -22.718252 0.000000 -13.777578
v -26.717642 0.000000 -13.707766
v 4.200001 8.000000 13.800000
v 8.200001 8.000000 13.800000
v 4.200001 0.000000 13.800000
v 8.200001 0.000000 13.800000
v -30.000000 2.000000 16.000000
v 11.000000 2.000000 16.000000
v -30.000000 0.000000 16.000000
v 11.000000 0.000000 16.000000
v 11.000000 2.000000 24.000000
v 45.000000 2.000000 24.000000
v 11.000000 0.000000 24.000000
v 45.000000 0.000000 24.000000
v 45.000000 2.000000 -24.000000
v 11.000000 2.000000 -24.000000
v 45.000000 0.000000 -24.000000
v 11.000000 0.000000 -24.000000
v 11.000000 2.000000 -16.000000
v -30.000000 2.000000 -16.000000
v 11.000000 0.000000 -16.000000
v -30.000000 0.000000 -16.000000
v -30.000000 2.000000 -16.000000
v -30.000000 2.000000 16.000000
v -30.000000 0.000000 -16.000000
v -30.000000 0.000000 16.000000
v 45.000000 2.000000 24.000000
v 45.000000 2.000000 -24.000000
v 45.000000 0.000000 24.000000
v 45.000000 0.000000 -24.000000
v -25.734814 8.000000 10.366668
v -22.342619 8.000000 12.486340
v -25.734814 0.000000 10.366668
v -22.342619 0.000000 12.486340
v 15.841494 8.000000 19.368242
v 19.339970 8.000000 21.307482
v 15.841494 0.000000 19.368242
v 19.339970 0.000000 21.307482
v 38.000000 8.000000 21.000002
v 41.999996 8.000000 21.000002
v 38.000000 0.000000 21.000002
v 41.999996 0.000000 21.000002
v 15.002306 8.000000 -20.968571
v 11.002924 8.000000 -20.898766
v 15.002306 0.000000 -20.968571
v 11.002924 0.000000 -20.898766
v 44.992500 8.000000 -18.058218
v 41.563805 8.000000 -20.118351
v 44.992500 0.000000 -18.058218
v 41.563805 0.000000 -20.118351
v -0.534602 8.000000 -12.532811
v -4.066351 8.000000 -14.410694
v -0.534602 0.000000 -12.532811
v -4.066351 0.000000 -14.410694
v -22.718252 8.000000 -13.777578
v -26.717642 8.000000 -13.707766
v -22.718252 0.000000 -13.777578
v -26.717642 0.000000 -13.707766
v 11.000000 2.000000 24.000000
v 11.000000 2.000000 16.000000
v 11.000000 0.000000 24.000000
v 11.000000 0.000000 16.000000
v 11.000000 2.000000 -16.000000
v 11.000000 2.000000 -24.000000
v 11.000000 0.000000 -16.000000
v 11.000000 0.000000 -24.000000
v 11.000000 2.000000 -16.000000
v 11.000000 2.000000 -24.000000
v 11.000000 0.000000 -16.000000
v 11.000000 0.000000 -24.000000
# 128 vertices

vt 0.000000 0.750000
vt 0.000000 0.500000
vt 1.000000 0.500000
vt 1.000000 0.750000
vt 0.250000 0.500000
vt 0.250000 0.000000
vt 0.500000 0.000000
vt 0.500000 0.500000
vt 5.000000 0.500000
vt 5.000000 0.750000
vt 4.000000 0.500000
vt 4.000000 0.750000
vt 0.000000 0.000000
vt 0.750000 0.000000
vt 0.750000 0.500000
vt 1.000000 0.000000
# 16 texture coordinates

vn 1.000000 0.000000 0.000000
vn 0.000000 0.000000 1.000000
vn 0.000000 0.000000 -1.000000
vn -1.000000 0.000000 0.000000
vn -0.529918 0.000000 0.848049
vn -0.484810 0.000000 0.874619
vn -0.017451 0.000000 -0.999848
vn 0.515032 0.000000 -0.857171
vn 0.469475 0.000000 -0.882946
vn 0.529918 0.000000 -0.848049
vn 0.484810 0.000000 -0.874619
vn 0.017451 0.000000 0.999848
vn -0.515032 0.000000 0.857171
vn -0.469475 0.000000 0.882946
# 14 normals

g Regroup03
usemtl rus_build_dec_01
s 1
f 1/1/1 3/2/1 4/3/1
f 1/1/1 4/3/1 2/4/1
f 5/5/2 7/6/2 8/7/2
f 5/5/2 8/7/2 6/8/2
f 9/1/2 11/2/2 12/9/2
f 9/1/2 12/9/2 10/10/2
f 13/1/2 15/2/2 16/11/2
f 13/1/2 16/11/2 14/12/2
f 17/1/3 19/2/3 20/11/3
f 17/1/3 20/11/3 18/12/3
f 21/1/3 23/2/3 24/9/3
f 21/1/3 24/9/3 22/10/3
f 25/1/4 27/2/4 28/11/4
f 25/1/4 28/11/4 26/12/4
f 29/1/1 31/2/1 32/9/1
f 29/1/1 32/9/1 30/10/1
f 33/2/5 35/13/5 36/6/5
f 33/2/5 36/6/5 34/5/5
f 37/8/6 39/7/6 40/14/6
f 37/8/6 40/14/6 38/15/6
f 41/15/2 43/14/2 44/16/2
f 41/15/2 44/16/2 42/3/2
f 45/5/7 47/6/7 48/7/7
f 45/5/7 48/7/7 46/8/7
f 49/2/8 51/13/8 52/6/8
f 49/2/8 52/6/8 50/5/8
f 53/8/9 55/7/9 56/14/9
f 53/8/9 56/14/9 54/15/9
f 57/15/7 59/14/7 60/16/7
f 57/15/7 60/16/7 58/3/7
f 64/7/3 63/6/3 61/5/3
f 62/8/3 64/7/3 61/5/3
f 68/9/3 67/2/3 65/1/3
f 66/10/3 68/9/3 65/1/3
f 72/11/3 71/2/3 69/1/3
f 70/12/3 72/11/3 69/1/3
f 76/11/2 75/2/2 73/1/2
f 74/12/2 76/11/2 73/1/2
f 80/9/2 79/2/2 77/1/2
f 78/10/2 80/9/2 77/1/2
f 84/11/1 83/2/1 81/1/1
f 82/12/1 84/11/1 81/1/1
f 88/9/4 87/2/4 85/1/4
f 86/10/4 88/9/4 85/1/4
f 92/6/10 91/13/10 89/2/10
f 90/5/10 92/6/10 89/2/10
f 96/14/11 95/7/11 93/8/11
f 94/15/11 96/14/11 93/8/11
f 100/16/3 99/14/3 97/15/3
f 98/3/3 100/16/3 97/15/3
f 104/7/12 103/6/12 101/5/12
f 102/8/12 104/7/12 101/5/12
f 108/6/13 107/13/13 105/2/13
f 106/5/13 108/6/13 105/2/13
f 112/14/14 111/7/14 109/8/14
f 110/15/14 112/14/14 109/8/14
f 116/16/12 115/14/12 113/15/12
f 114/3/12 116/16/12 113/15/12
f 120/3/4 119/2/4 117/1/4
f 118/4/4 120/3/4 117/1/4
f 121/1/1 123/2/1 124/3/1
f 121/1/1 124/3/1 122/4/1
f 128/3/4 127/2/4 125/1/4
f 126/4/4 128/3/4 125/1/4
# 64 triangles in group

# 64 triangles total

