# Wavefront OBJ exported by MilkShape 3D

mtllib rus_build_dec_roof_06.mtl

v 20.428574 28.099998 19.257139
v 17.428581 28.099998 22.257135
v 20.428574 20.099998 19.257139
v 17.428581 20.099998 22.257135
v 20.428574 28.099998 19.257139
v 17.428581 28.099998 22.257135
v 20.428574 20.099998 19.257139
v 17.428581 20.099998 22.257135
v 25.500000 27.700001 -23.000002
v 21.500000 27.700001 -23.000002
v 25.500000 19.700001 -23.000002
v 21.500000 19.700001 -23.000002
v 25.500000 27.700001 -23.000002
v 21.500000 27.700001 -23.000002
v 25.500000 19.700001 -23.000002
v 21.500000 19.700001 -23.000002
v -14.500000 28.299995 -20.200001
v -18.500000 28.299995 -20.200001
v -14.500000 20.299995 -20.200001
v -18.500000 20.299995 -20.200001
v -14.500000 28.299995 -20.200001
v -18.500000 28.299995 -20.200001
v -14.500000 20.299995 -20.200001
v -18.500000 20.299995 -20.200001
v -25.126970 27.666666 22.357143
v -22.126970 27.666666 25.357140
v -25.126970 19.666666 22.357143
v -22.126970 19.666666 25.357140
v -25.126970 27.666666 22.357143
v -22.126970 27.666666 25.357140
v -25.126970 19.666666 22.357143
v -22.126970 19.666666 25.357140
# 32 vertices

vt 0.000000 0.000000
vt 0.250000 0.000000
vt 0.250000 0.500000
vt 0.000000 0.500000
vt 0.500000 0.000000
vt 0.500000 0.500000
vt 0.750000 0.000000
vt 0.750000 0.500000
vt 1.000000 0.000000
vt 1.000000 0.500000
# 10 texture coordinates

vn -0.707107 0.000000 -0.707106
vn 0.707107 0.000000 0.707106
vn 0.000000 0.000000 -1.000000
vn 0.000000 0.000000 1.000000
vn -0.707106 0.000000 0.707107
vn 0.707106 0.000000 -0.707107
# 6 normals

g rus_build_dec_01
usemtl rus_build_dec_01
s 1
f 3/1/1 4/2/1 2/3/1
f 3/1/1 2/3/1 1/4/1
f 6/3/2 8/2/2 7/1/2
f 5/4/2 6/3/2 7/1/2
f 11/2/3 12/5/3 10/6/3
f 11/2/3 10/6/3 9/3/3
f 14/6/4 16/5/4 15/2/4
f 13/3/4 14/6/4 15/2/4
f 19/5/3 20/7/3 18/8/3
f 19/5/3 18/8/3 17/6/3
f 22/8/4 24/7/4 23/5/4
f 21/6/4 22/8/4 23/5/4
f 27/7/5 28/9/5 26/10/5
f 27/7/5 26/10/5 25/8/5
f 30/10/6 32/9/6 31/7/6
f 29/8/6 30/10/6 31/7/6
# 16 triangles in group

# 16 triangles total

